<svg width="3534" height="1882" xmlns="http://www.w3.org/2000/svg" xmlns:xlink="http://www.w3.org/1999/xlink" xml:space="preserve" overflow="hidden"><g transform="translate(-141 -151)"><rect x="1276" y="157" width="636" height="632" stroke="#000000" stroke-width="2.29167" stroke-miterlimit="8" fill="none"/><text font-family="Meiryo,Meiryo_MSFontService,sans-serif" font-weight="700" font-size="73" transform="matrix(1 0 0 1 1543.29 236)">PC</text><rect x="1327" y="261" width="534" height="492" stroke="#000000" stroke-width="2.29167" stroke-miterlimit="8" fill="none"/><text font-family="Meiryo,Meiryo_MSFontService,sans-serif" font-weight="700" font-size="73" transform="matrix(1 0 0 1 1491.02 340)">Unity</text><path d="M1059.5 956.464 1059.5 589.5 1276.42 589.5" stroke="#FF0000" stroke-width="6.875" stroke-miterlimit="8" fill="none" fill-rule="evenodd"/><text fill="#FF0000" font-family="Meiryo,Meiryo_MSFontService,sans-serif" font-weight="700" font-size="73" transform="matrix(1 0 0 1 319.719 566)">USB MAXON SERIAL V2</text><text fill="#4EA72E" font-family="Meiryo,Meiryo_MSFontService,sans-serif" font-weight="700" font-size="73" transform="matrix(1 0 0 1 1920.75 572)">USB Serial</text><rect x="2341" y="491" width="499" height="196" stroke="#000000" stroke-width="2.29167" stroke-miterlimit="8" fill="none"/><text font-family="Meiryo,Meiryo_MSFontService,sans-serif" font-weight="700" font-size="55" transform="matrix(1 0 0 1 2512.51 537)">Pulse </text><text font-family="Meiryo,Meiryo_MSFontService,sans-serif" font-weight="700" font-size="55" transform="matrix(1 0 0 1 2447.22 603)">generator</text><text font-family="Meiryo,Meiryo_MSFontService,sans-serif" font-weight="700" font-size="55" transform="matrix(1 0 0 1 2497.71 669)">ESP32</text><rect x="1408" y="498" width="371" height="181" stroke="#000000" stroke-width="2.29167" stroke-miterlimit="8" fill="none"/><text font-family="Meiryo,Meiryo_MSFontService,sans-serif" font-weight="700" font-size="55" transform="matrix(1 0 0 1 1446.18 570)">EPOS</text><text font-family="Meiryo,Meiryo_MSFontService,sans-serif" font-weight="700" font-size="55" transform="matrix(1 0 0 1 1619.78 570)">.Net</text><text font-family="Meiryo,Meiryo_MSFontService,sans-serif" font-weight="700" font-size="55" transform="matrix(1 0 0 1 1490.57 636)">Library</text><path d="M1276.5 589.5 1408.67 589.54" stroke="#000000" stroke-width="6.875" stroke-miterlimit="8" fill="none" fill-rule="evenodd"/><path d="M1912.5 589.5 2342.04 589.5" stroke="#4EA72E" stroke-width="6.875" stroke-miterlimit="8" fill="none" fill-rule="evenodd"/><path d="M0 0 132.17 0.0400591" stroke="#000000" stroke-width="6.875" stroke-miterlimit="8" fill="none" fill-rule="evenodd" transform="matrix(1 0 0 -1 1779.5 589.54)"/><rect x="1359" y="375" width="470" height="351" stroke="#000000" stroke-width="2.29167" stroke-miterlimit="8" fill="none"/><text font-family="Meiryo,Meiryo_MSFontService,sans-serif" font-weight="700" font-size="55" transform="matrix(1 0 0 1 1457.64 438)">C#</text><text font-family="Meiryo,Meiryo_MSFontService,sans-serif" font-weight="700" font-size="55" transform="matrix(1 0 0 1 1559.62 438)">Scrip</text><text font-family="Meiryo,Meiryo_MSFontService,sans-serif" font-weight="700" font-size="55" transform="matrix(1 0 0 1 1706.29 438)">t</text><rect x="176" y="1181" width="546" height="153" stroke="#000000" stroke-width="2.29167" stroke-miterlimit="8" fill="none"/><text font-family="Meiryo,Meiryo_MSFontService,sans-serif" font-weight="700" font-size="55" transform="matrix(1 0 0 1 221.763 1272)">Left</text><text font-family="Meiryo,Meiryo_MSFontService,sans-serif" font-weight="700" font-size="55" transform="matrix(1 0 0 1 353.649 1272)">Pedal Pitch</text><rect x="176" y="962" width="546" height="153" stroke="#000000" stroke-width="2.29167" stroke-miterlimit="8" fill="none"/><text font-family="Meiryo,Meiryo_MSFontService,sans-serif" font-weight="700" font-size="55" transform="matrix(1 0 0 1 293.584 1053)">Saddle Lift</text><rect x="142" y="819" width="614" height="1213" stroke="#000000" stroke-width="2.29167" stroke-miterlimit="8" fill="none"/><text font-family="Meiryo,Meiryo_MSFontService,sans-serif" font-weight="700" font-size="73" transform="matrix(1 0 0 1 315.172 897)">Moto</text><text font-family="Meiryo,Meiryo_MSFontService,sans-serif" font-weight="700" font-size="73" transform="matrix(1 0 0 1 507.947 897)">r</text><text font-family="Meiryo,Meiryo_MSFontService,sans-serif" font-weight="700" font-size="73" transform="matrix(1 0 0 1 542.322 897)">s</text><rect x="830" y="1181" width="598" height="153" stroke="#000000" stroke-width="2.29167" stroke-miterlimit="8" fill="none"/><text font-family="Meiryo,Meiryo_MSFontService,sans-serif" font-weight="700" font-size="55" transform="matrix(1 0 0 1 914.91 1239)">EPO4 Compact</text><text font-family="Meiryo,Meiryo_MSFontService,sans-serif" font-weight="700" font-size="55" transform="matrix(1 0 0 1 986.341 1305)">50/5 CAN</text><rect x="830" y="1400" width="598" height="153" stroke="#000000" stroke-width="2.29167" stroke-miterlimit="8" fill="none"/><text font-family="Meiryo,Meiryo_MSFontService,sans-serif" font-weight="700" font-size="55" transform="matrix(1 0 0 1 914.91 1457)">EPO4 Compact</text><text font-family="Meiryo,Meiryo_MSFontService,sans-serif" font-weight="700" font-size="55" transform="matrix(1 0 0 1 986.341 1523)">50/5 CAN</text><rect x="1536" y="1179" width="635" height="153" stroke="#000000" stroke-width="2.29167" stroke-miterlimit="8" fill="none"/><text font-family="Meiryo,Meiryo_MSFontService,sans-serif" font-weight="700" font-size="55" transform="matrix(1 0 0 1 1639.18 1237)">EPO4 Compact</text><text font-family="Meiryo,Meiryo_MSFontService,sans-serif" font-weight="700" font-size="55" transform="matrix(1 0 0 1 1710.61 1303)">50/5 CAN</text><rect x="1536" y="1398" width="635" height="154" stroke="#000000" stroke-width="2.29167" stroke-miterlimit="8" fill="none"/><text font-family="Meiryo,Meiryo_MSFontService,sans-serif" font-weight="700" font-size="55" transform="matrix(1 0 0 1 1639.18 1456)">EPO4 Compact</text><text font-family="Meiryo,Meiryo_MSFontService,sans-serif" font-weight="700" font-size="55" transform="matrix(1 0 0 1 1710.61 1522)">50/5 CA</text><text font-family="Meiryo,Meiryo_MSFontService,sans-serif" font-weight="700" font-size="55" transform="matrix(1 0 0 1 1951.61 1522)">N</text><rect x="830" y="1619" width="598" height="153" stroke="#000000" stroke-width="2.29167" stroke-miterlimit="8" fill="none"/><text font-family="Meiryo,Meiryo_MSFontService,sans-serif" font-weight="700" font-size="55" transform="matrix(1 0 0 1 914.91 1676)">EPO4 Compact</text><text font-family="Meiryo,Meiryo_MSFontService,sans-serif" font-weight="700" font-size="55" transform="matrix(1 0 0 1 986.341 1742)">50/8 CAN</text><rect x="830" y="1837" width="598" height="154" stroke="#000000" stroke-width="2.29167" stroke-miterlimit="8" fill="none"/><text font-family="Meiryo,Meiryo_MSFontService,sans-serif" font-weight="700" font-size="55" transform="matrix(1 0 0 1 914.91 1895)">EPO4 Compact</text><text font-family="Meiryo,Meiryo_MSFontService,sans-serif" font-weight="700" font-size="55" transform="matrix(1 0 0 1 986.341 1961)">50/8 CAN</text><rect x="1536" y="1837" width="635" height="154" stroke="#000000" stroke-width="2.29167" stroke-miterlimit="8" fill="none"/><text font-family="Meiryo,Meiryo_MSFontService,sans-serif" font-weight="700" font-size="55" transform="matrix(1 0 0 1 1639.18 1895)">EPO4 Compact</text><text font-family="Meiryo,Meiryo_MSFontService,sans-serif" font-weight="700" font-size="55" transform="matrix(1 0 0 1 1710.61 1961)">50/8 CAN</text><rect x="1536" y="1618" width="635" height="153" stroke="#000000" stroke-width="2.29167" stroke-miterlimit="8" fill="none"/><text font-family="Meiryo,Meiryo_MSFontService,sans-serif" font-weight="700" font-size="55" transform="matrix(1 0 0 1 1639.18 1676)">EPO4 Compact</text><text font-family="Meiryo,Meiryo_MSFontService,sans-serif" font-weight="700" font-size="55" transform="matrix(1 0 0 1 1710.61 1742)">50/8 CAN</text><text fill="#0000FF" font-family="Meiryo,Meiryo_MSFontService,sans-serif" font-weight="700" font-size="83" transform="matrix(1 0 0 1 1383.85 1839)">CAN</text><rect x="794" y="819" width="1420" height="1213" stroke="#000000" stroke-width="2.29167" stroke-miterlimit="8" fill="none"/><text font-family="Meiryo,Meiryo_MSFontService,sans-serif" font-weight="700" font-size="55" transform="matrix(1 0 0 1 1175.41 882)">Digital positioning controllers</text><rect x="830" y="962" width="598" height="153" stroke="#000000" stroke-width="2.29167" stroke-miterlimit="8" fill="none"/><text font-family="Meiryo,Meiryo_MSFontService,sans-serif" font-weight="700" font-size="55" transform="matrix(1 0 0 1 914.91 1020)">EPO4 Compact</text><text font-family="Meiryo,Meiryo_MSFontService,sans-serif" font-weight="700" font-size="55" transform="matrix(1 0 0 1 986.341 1086)">50/8 CAN</text><path d="M1129.5 1115.5 1129.5 1180.97" stroke="#0000FF" stroke-width="6.875" stroke-miterlimit="8" fill="none" fill-rule="evenodd"/><path d="M1129.5 1334.5 1129.5 1399.97" stroke="#0000FF" stroke-width="6.875" stroke-miterlimit="8" fill="none" fill-rule="evenodd"/><path d="M1129.5 1553.5 1129.5 1618.97" stroke="#0000FF" stroke-width="6.875" stroke-miterlimit="8" fill="none" fill-rule="evenodd"/><path d="M1129.5 1772.5 1129.5 1837.97" stroke="#0000FF" stroke-width="6.875" stroke-miterlimit="8" fill="none" fill-rule="evenodd"/><path d="M0 0 107.565 0.000360892" stroke="#0000FF" stroke-width="6.875" stroke-miterlimit="8" fill="none" fill-rule="evenodd" transform="matrix(-1 0 0 1 1536.07 1914.5)"/><path d="M1853.5 1771.5 1853.5 1837.59" stroke="#0000FF" stroke-width="6.875" stroke-miterlimit="8" fill="none" fill-rule="evenodd"/><path d="M1853.5 1552.5 1853.5 1618.59" stroke="#0000FF" stroke-width="6.875" stroke-miterlimit="8" fill="none" fill-rule="evenodd"/><path d="M1853.5 1332.5 1853.5 1398.59" stroke="#0000FF" stroke-width="6.875" stroke-miterlimit="8" fill="none" fill-rule="evenodd"/><path d="M722.5 1039.5 831.228 1039.5" stroke="#000000" stroke-width="6.875" stroke-miterlimit="8" fill="none" fill-rule="evenodd"/><path d="M722.5 1258.5 831.228 1258.5" stroke="#000000" stroke-width="6.875" stroke-miterlimit="8" fill="none" fill-rule="evenodd"/><rect x="176" y="1400" width="546" height="153" stroke="#000000" stroke-width="2.29167" stroke-miterlimit="8" fill="none"/><text font-family="Meiryo,Meiryo_MSFontService,sans-serif" font-weight="700" font-size="55" transform="matrix(1 0 0 1 210.775 1490)">Left</text><text font-family="Meiryo,Meiryo_MSFontService,sans-serif" font-weight="700" font-size="55" transform="matrix(1 0 0 1 342.66 1490)">Pedal Slider</text><rect x="176" y="1619" width="546" height="153" stroke="#000000" stroke-width="2.29167" stroke-miterlimit="8" fill="none"/><text font-family="Meiryo,Meiryo_MSFontService,sans-serif" font-weight="700" font-size="55" transform="matrix(1 0 0 1 209.652 1709)">Left</text><text font-family="Meiryo,Meiryo_MSFontService,sans-serif" font-weight="700" font-size="55" transform="matrix(1 0 0 1 341.537 1709)">Stoc</text><text font-family="Meiryo,Meiryo_MSFontService,sans-serif" font-weight="700" font-size="55" transform="matrix(1 0 0 1 467.946 1709)">k</text><text font-family="Meiryo,Meiryo_MSFontService,sans-serif" font-weight="700" font-size="55" transform="matrix(1 0 0 1 520.654 1709)">Slider</text><rect x="176" y="1837" width="546" height="153" stroke="#000000" stroke-width="2.29167" stroke-miterlimit="8" fill="none"/><text font-family="Meiryo,Meiryo_MSFontService,sans-serif" font-weight="700" font-size="55" transform="matrix(1 0 0 1 302.464 1895)">Left</text><text font-family="Meiryo,Meiryo_MSFontService,sans-serif" font-weight="700" font-size="55" transform="matrix(1 0 0 1 434.35 1895)">Stoc</text><text font-family="Meiryo,Meiryo_MSFontService,sans-serif" font-weight="700" font-size="55" transform="matrix(1 0 0 1 560.758 1895)">k</text><text font-family="Meiryo,Meiryo_MSFontService,sans-serif" font-weight="700" font-size="55" transform="matrix(1 0 0 1 347.198 1961)">Extend</text><path d="M722.5 1476.5 831.228 1476.71" stroke="#000000" stroke-width="6.875" stroke-miterlimit="8" fill="none" fill-rule="evenodd"/><path d="M722.5 1695.5 831.228 1695.5" stroke="#000000" stroke-width="6.875" stroke-miterlimit="8" fill="none" fill-rule="evenodd"/><path d="M722.5 1914.5 831.228 1915.07" stroke="#000000" stroke-width="6.875" stroke-miterlimit="8" fill="none" fill-rule="evenodd"/><rect x="2268" y="1181" width="584" height="153" stroke="#000000" stroke-width="2.29167" stroke-miterlimit="8" fill="none"/><text font-family="Meiryo,Meiryo_MSFontService,sans-serif" font-weight="700" font-size="55" transform="matrix(1 0 0 1 2311.93 1272)">Righ</text><text font-family="Meiryo,Meiryo_MSFontService,sans-serif" font-weight="700" font-size="55" transform="matrix(1 0 0 1 2443.71 1272)">t</text><text font-family="Meiryo,Meiryo_MSFontService,sans-serif" font-weight="700" font-size="55" transform="matrix(1 0 0 1 2485.53 1272)">Pedal Pitch</text><path d="M2171.5 1256.5 2267.66 1258.37" stroke="#000000" stroke-width="6.875" stroke-miterlimit="8" fill="none" fill-rule="evenodd"/><rect x="2268" y="1400" width="584" height="153" stroke="#000000" stroke-width="2.29167" stroke-miterlimit="8" fill="none"/><text font-family="Meiryo,Meiryo_MSFontService,sans-serif" font-weight="700" font-size="55" transform="matrix(1 0 0 1 2300.95 1490)">Righ</text><text font-family="Meiryo,Meiryo_MSFontService,sans-serif" font-weight="700" font-size="55" transform="matrix(1 0 0 1 2432.72 1490)">t</text><text font-family="Meiryo,Meiryo_MSFontService,sans-serif" font-weight="700" font-size="55" transform="matrix(1 0 0 1 2474.54 1490)">Pedal Slider</text><rect x="2268" y="1619" width="584" height="153" stroke="#000000" stroke-width="2.29167" stroke-miterlimit="8" fill="none"/><text font-family="Meiryo,Meiryo_MSFontService,sans-serif" font-weight="700" font-size="55" transform="matrix(1 0 0 1 2392.64 1676)">Righ</text><text font-family="Meiryo,Meiryo_MSFontService,sans-serif" font-weight="700" font-size="55" transform="matrix(1 0 0 1 2524.41 1676)">t</text><text font-family="Meiryo,Meiryo_MSFontService,sans-serif" font-weight="700" font-size="55" transform="matrix(1 0 0 1 2566.23 1676)">Stoc</text><text font-family="Meiryo,Meiryo_MSFontService,sans-serif" font-weight="700" font-size="55" transform="matrix(1 0 0 1 2692.64 1676)">k</text><text font-family="Meiryo,Meiryo_MSFontService,sans-serif" font-weight="700" font-size="55" transform="matrix(1 0 0 1 2476.17 1742)">Slider</text><rect x="2268" y="1837" width="584" height="153" stroke="#000000" stroke-width="2.29167" stroke-miterlimit="8" fill="none"/><text font-family="Meiryo,Meiryo_MSFontService,sans-serif" font-weight="700" font-size="55" transform="matrix(1 0 0 1 2392.64 1895)">Right Stoc</text><text font-family="Meiryo,Meiryo_MSFontService,sans-serif" font-weight="700" font-size="55" transform="matrix(1 0 0 1 2692.64 1895)">k</text><text font-family="Meiryo,Meiryo_MSFontService,sans-serif" font-weight="700" font-size="55" transform="matrix(1 0 0 1 2458.22 1961)">Extend</text><path d="M2171.5 1475.5 2267.66 1476.54" stroke="#000000" stroke-width="6.875" stroke-miterlimit="8" fill="none" fill-rule="evenodd"/><path d="M2171.5 1695.5 2267.66 1696.12" stroke="#000000" stroke-width="6.875" stroke-miterlimit="8" fill="none" fill-rule="evenodd"/><path d="M0 0 96.1565 0.573819" stroke="#000000" stroke-width="6.875" stroke-miterlimit="8" fill="none" fill-rule="evenodd" transform="matrix(1 0 0 -1 2171.5 1915.07)"/><path d="M2840.5 589.5 2943.53 589.5 2943.53 1259.21 3003.79 1259.21" stroke="#000000" stroke-width="6.875" stroke-miterlimit="8" fill="none" fill-rule="evenodd"/><rect x="3003" y="1618" width="585" height="153" stroke="#000000" stroke-width="2.29167" stroke-miterlimit="8" fill="none"/><text font-family="Meiryo,Meiryo_MSFontService,sans-serif" font-weight="700" font-size="55" transform="matrix(1 0 0 1 3067.38 1709)">Left Stock Pitch</text><rect x="3003" y="1837" width="585" height="153" stroke="#000000" stroke-width="2.29167" stroke-miterlimit="8" fill="none"/><text font-family="Meiryo,Meiryo_MSFontService,sans-serif" font-weight="700" font-size="55" transform="matrix(1 0 0 1 3046.52 1928)">Right Stock Pitch</text><rect x="3003" y="1182" width="585" height="153" stroke="#000000" stroke-width="2.29167" stroke-miterlimit="8" fill="none"/><text font-family="Meiryo,Meiryo_MSFontService,sans-serif" font-weight="700" font-size="55" transform="matrix(1 0 0 1 3115.93 1273)">RKSD</text><text font-family="Meiryo,Meiryo_MSFontService,sans-serif" font-weight="700" font-size="55" transform="matrix(1 0 0 1 3296.97 1273)">507</text><text font-family="Meiryo,Meiryo_MSFontService,sans-serif" font-weight="700" font-size="55" transform="matrix(1 0 0 1 3408.69 1273)">-</text><text font-family="Meiryo,Meiryo_MSFontService,sans-serif" font-weight="700" font-size="55" transform="matrix(1 0 0 1 3434.47 1273)">A</text><rect x="3003" y="1401" width="585" height="153" stroke="#000000" stroke-width="2.29167" stroke-miterlimit="8" fill="none"/><text font-family="Meiryo,Meiryo_MSFontService,sans-serif" font-weight="700" font-size="55" transform="matrix(1 0 0 1 3115.93 1492)">RKSD</text><text font-family="Meiryo,Meiryo_MSFontService,sans-serif" font-weight="700" font-size="55" transform="matrix(1 0 0 1 3296.97 1492)">507</text><text font-family="Meiryo,Meiryo_MSFontService,sans-serif" font-weight="700" font-size="55" transform="matrix(1 0 0 1 3408.69 1492)">-</text><text font-family="Meiryo,Meiryo_MSFontService,sans-serif" font-weight="700" font-size="55" transform="matrix(1 0 0 1 3434.47 1492)">A</text><path d="M3588.5 1259.5 3671 1259.5 3671 1914.42 3593.08 1914.42" stroke="#000000" stroke-width="6.875" stroke-miterlimit="8" fill="none" fill-rule="evenodd"/><path d="M3296.5 1554.5 3296.5 1618.19" stroke="#000000" stroke-width="6.875" stroke-miterlimit="8" fill="none" fill-rule="evenodd"/><rect x="3031" y="832" width="355" height="143" fill="#FFFFFF"/><rect x="2982" y="817" width="638" height="760" stroke="#000000" stroke-width="2.29167" stroke-miterlimit="8" fill="none"/><text font-family="Meiryo,Meiryo_MSFontService,sans-serif" font-weight="700" font-size="55" transform="matrix(1 0 0 1 3074.47 881)">Stepping motor</text><text font-family="Meiryo,Meiryo_MSFontService,sans-serif" font-weight="700" font-size="55" transform="matrix(1 0 0 1 3141.87 947)">Controllers</text><path d="M2840.5 645.5 2903.81 645.5 2903.81 1478.27 3003.79 1478.27" stroke="#000000" stroke-width="6.875" stroke-miterlimit="8" fill="none" fill-rule="evenodd"/><path d="M2252 817 2870.23 817 2870.23 1599.94 3620 1599.94 3620 2030.99 2252 2030.99Z" stroke="#000000" stroke-width="2.29167" stroke-miterlimit="8" fill="none" fill-rule="evenodd"/><text font-family="Meiryo,Meiryo_MSFontService,sans-serif" font-weight="700" font-size="73" transform="matrix(1 0 0 1 2405.3 893)">Motors</text></g></svg>