<svg width="426" height="745" xmlns="http://www.w3.org/2000/svg" xmlns:xlink="http://www.w3.org/1999/xlink" xml:space="preserve" overflow="hidden"><defs><clipPath id="clip0"><rect x="2834" y="1496" width="426" height="745"/></clipPath></defs><g clip-path="url(#clip0)" transform="translate(-2834 -1496)"><rect x="2834" y="1496" width="426" height="745" fill="#FFFFFF"/><g><path d="M2969.5 2012.57 3209.5 2012.57M2969.5 1896.56 3209.5 1896.56M2969.5 1779.56 3209.5 1779.56M2969.5 1662.55 3209.5 1662.55M2969.5 1546.5 3209.5 1546.5" stroke="#D9D9D9" stroke-width="3.4375" stroke-linejoin="round" stroke-miterlimit="10" fill="none"/></g><g><path d="M2998.1 1734.06 3182.1 1734.06 3182.1 2130 2998.1 2130Z" fill="#5B9BD5"/></g><g><path d="M3089.6 1733.56 3089.6 1779.5M3089.6 1733.56 3089.6 1688.5M3079.5 1779.5 3100.5 1779.5M3079.5 1688.5 3100.5 1688.5" stroke="#000000" stroke-width="6.875" stroke-linejoin="round" stroke-miterlimit="10" fill="none"/></g><g><path d="M0 0 0.000360892 583" stroke="#000000" stroke-width="6.875" stroke-linejoin="round" stroke-miterlimit="10" fill="none" fill-rule="evenodd" transform="matrix(1 0 0 -1 2969.5 2129.5)"/></g><g><path d="M2969.5 2129.5 3209.5 2129.5" stroke="#000000" stroke-width="6.875" stroke-linejoin="round" stroke-miterlimit="10" fill="none" fill-rule="evenodd"/></g><g><text font-family="Meiryo UI,Meiryo UI_MSFontService,sans-serif" font-weight="400" font-size="41" transform="matrix(1 0 0 1 2903.58 2145)">0</text></g><g><text font-family="Meiryo UI,Meiryo UI_MSFontService,sans-serif" font-weight="400" font-size="41" transform="matrix(1 0 0 1 2863.57 2028)">0.2</text></g><g><text font-family="Meiryo UI,Meiryo UI_MSFontService,sans-serif" font-weight="400" font-size="41" transform="matrix(1 0 0 1 2863.57 1911)">0.4</text></g><g><text font-family="Meiryo UI,Meiryo UI_MSFontService,sans-serif" font-weight="400" font-size="41" transform="matrix(1 0 0 1 2863.57 1795)">0.6</text></g><g><text font-family="Meiryo UI,Meiryo UI_MSFontService,sans-serif" font-weight="400" font-size="41" transform="matrix(1 0 0 1 2863.57 1678)">0.8</text></g><g><text font-family="Meiryo UI,Meiryo UI_MSFontService,sans-serif" font-weight="400" font-size="41" transform="matrix(1 0 0 1 2903.58 1561)">1</text></g><g><text fill="#FFFFFF" font-family="Meiryo UI,Meiryo UI_MSFontService,sans-serif" font-weight="400" font-size="41" transform="matrix(1 0 0 1 3076.88 2203)">1</text></g></g></svg>