<svg width="1295" height="835" xmlns="http://www.w3.org/2000/svg" xmlns:xlink="http://www.w3.org/1999/xlink" xml:space="preserve" overflow="hidden"><defs><clipPath id="clip0"><rect x="2212" y="552" width="1295" height="835"/></clipPath></defs><g clip-path="url(#clip0)" transform="translate(-2212 -552)"><rect x="2212" y="616" width="909" height="757" fill="#FFFFFF"/><g><path d="M2359.5 1129.54 3071.5 1129.54M2359.5 1013.53 3071.5 1013.53M2359.5 897.53 3071.5 897.53M2359.5 781.526 3071.5 781.526M2359.5 665.5 3071.5 665.5" stroke="#D9D9D9" stroke-width="3.4375" stroke-linejoin="round" stroke-miterlimit="10" fill="none"/></g><g><path d="M2387.08 1182.04 2569.08 1182.04 2569.08 1246 2387.08 1246ZM2624.09 879.029 2806.09 879.029 2806.09 1246 2624.09 1246ZM2861.09 805.026 3044.1 805.026 3044.1 1246 2861.09 1246Z" fill="#5B9BD5"/></g><g><path d="M2478.58 1182.54 2478.58 1204.5M2478.58 1182.54 2478.58 1159.5M2467.5 1204.5 2488.5 1204.5M2467.5 1159.5 2488.5 1159.5" stroke="#000000" stroke-width="6.875" stroke-linejoin="round" stroke-miterlimit="10" fill="none"/></g><g><path d="M2715.59 879.529 2715.59 951.5M2715.59 879.529 2715.59 806.5M2704.5 951.5 2725.5 951.5M2704.5 806.5 2725.5 806.5" stroke="#000000" stroke-width="6.875" stroke-linejoin="round" stroke-miterlimit="10" fill="none"/></g><g><path d="M2952.6 805.527 2952.6 853.5M2952.6 805.527 2952.6 757.5M2942.5 853.5 2962.5 853.5M2942.5 757.5 2962.5 757.5" stroke="#000000" stroke-width="6.875" stroke-linejoin="round" stroke-miterlimit="10" fill="none"/></g><g><path d="M0 0 0.000360892 580" stroke="#000000" stroke-width="6.875" stroke-linejoin="round" stroke-miterlimit="10" fill="none" fill-rule="evenodd" transform="matrix(1 0 0 -1 2359.5 1245.5)"/></g><g><path d="M2359.5 1245.5 3071.5 1245.5" stroke="#000000" stroke-width="6.875" stroke-linejoin="round" stroke-miterlimit="10" fill="none" fill-rule="evenodd"/></g><g><text font-family="Meiryo UI,Meiryo UI_MSFontService,sans-serif" font-weight="400" font-size="41" transform="matrix(1 0 0 1 2293.15 1261)">0</text></g><g><text font-family="Meiryo UI,Meiryo UI_MSFontService,sans-serif" font-weight="400" font-size="41" transform="matrix(1 0 0 1 2267.53 1145)">20</text></g><g><text font-family="Meiryo UI,Meiryo UI_MSFontService,sans-serif" font-weight="400" font-size="41" transform="matrix(1 0 0 1 2267.53 1029)">40</text></g><g><text font-family="Meiryo UI,Meiryo UI_MSFontService,sans-serif" font-weight="400" font-size="41" transform="matrix(1 0 0 1 2267.53 913)">60</text></g><g><text font-family="Meiryo UI,Meiryo UI_MSFontService,sans-serif" font-weight="400" font-size="41" transform="matrix(1 0 0 1 2267.53 797)">80</text></g><g><text font-family="Meiryo UI,Meiryo UI_MSFontService,sans-serif" font-weight="400" font-size="41" transform="matrix(1 0 0 1 2241.91 681)">100</text></g><g><text fill="#FFFFFF" font-family="Meiryo UI,Meiryo UI_MSFontService,sans-serif" font-weight="400" font-size="41" transform="matrix(1 0 0 1 2436.87 1327)">平地</text></g><g><text fill="#FFFFFF" font-family="Meiryo UI,Meiryo UI_MSFontService,sans-serif" font-weight="400" font-size="41" transform="matrix(1 0 0 1 2674.03 1327)">緩坂</text></g><g><text fill="#FFFFFF" font-family="Meiryo UI,Meiryo UI_MSFontService,sans-serif" font-weight="400" font-size="41" transform="matrix(1 0 0 1 2911.19 1327)">急坂</text></g><rect x="2314" y="1152" width="331" height="235" fill="#5B9BD5" fill-opacity="0"/><path d="M0 0-80.4362 0-80.4362 472.159 41.0019 472.159" stroke="#000000" stroke-width="3.4375" stroke-miterlimit="8" fill="none" fill-rule="evenodd" transform="matrix(1.83697e-16 1 1 -1.83697e-16 2480.5 705.5)"/><g><text font-family="Meiryo UI,Meiryo UI_MSFontService,sans-serif" font-weight="400" font-size="50" transform="matrix(1 0 0 1 3127.65 685)">**: p &lt; 0.01</text></g><g><text font-family="Meiryo UI,Meiryo UI_MSFontService,sans-serif" font-weight="400" font-size="50" transform="matrix(1 0 0 1 3127.65 768)">*: p &lt; 0.05</text></g><g><text font-family="MS Gothic,MS Gothic_MSFontService,sans-serif" font-weight="400" font-size="50" transform="matrix(1 0 0 1 2699.01 620)">**</text></g><path d="M2479.5 1152.16 2479.5 715.587 2714.62 715.587 2714.62 798.5" stroke="#000000" stroke-width="3.4375" stroke-miterlimit="8" fill="none" fill-rule="evenodd"/><g><text font-family="MS Gothic,MS Gothic_MSFontService,sans-serif" font-weight="400" font-size="50" transform="matrix(1 0 0 1 2567.15 712)">*</text></g></g></svg>