<svg width="2166" height="1245" xmlns="http://www.w3.org/2000/svg" xmlns:xlink="http://www.w3.org/1999/xlink" xml:space="preserve" overflow="hidden"><g transform="translate(-895 -633)"><path d="M34.419 6.65584 1526.76 617.317 1521.56 630.043 29.2117 19.3816ZM30.3664 34.7108 0 0 45.9884-3.46664ZM1525.61 601.989 1555.98 636.7 1509.99 640.167Z" transform="matrix(1 0 0 -1 938 1452.7)"/><text font-family="Meiryo,Meiryo_MSFontService,sans-serif" font-weight="400" font-size="128" transform="matrix(1 0 0 1 2349.7 781)">14</text><text font-family="Meiryo,Meiryo_MSFontService,sans-serif" font-weight="400" font-size="128" transform="matrix(1 0 0 1 2508.97 781)">段</text><text font-family="Meiryo,Meiryo_MSFontService,sans-serif" font-weight="400" font-size="128" transform="matrix(1 0 0 1 1737.12 1755)">踏み面</text><text font-family="Meiryo,Meiryo_MSFontService,sans-serif" font-weight="400" font-size="128" transform="matrix(1 0 0 1 2165.66 1755)">310mm</text><text font-family="Meiryo,Meiryo_MSFontService,sans-serif" font-weight="400" font-size="128" transform="matrix(1 0 0 1 2069.22 1543)">蹴上げ</text><text font-family="Meiryo,Meiryo_MSFontService,sans-serif" font-weight="400" font-size="128" transform="matrix(1 0 0 1 2497.76 1543)">158mm</text><path d="M0 0 259.843 0.000360892" stroke="#000000" stroke-width="6.875" stroke-miterlimit="8" fill="none" fill-rule="evenodd" transform="matrix(-1 0 0 1 2239.34 1374.5)"/><path d="M0 0 0.000360892 108.833" stroke="#000000" stroke-width="6.875" stroke-miterlimit="8" fill="none" fill-rule="evenodd" transform="matrix(-1 0 0 1 1979.5 1374.5)"/><path d="M0 0 259.843 0.000360892" stroke="#000000" stroke-width="6.875" stroke-miterlimit="8" fill="none" fill-rule="evenodd" transform="matrix(-1 0 0 1 1981.34 1483.5)"/><path d="M0 0 0.000360892 108.833" stroke="#000000" stroke-width="6.875" stroke-miterlimit="8" fill="none" fill-rule="evenodd" transform="matrix(-1 0 0 1 1721.5 1483.5)"/><path d="M0 0 259.843 0.000360892" stroke="#000000" stroke-width="6.875" stroke-miterlimit="8" fill="none" fill-rule="evenodd" transform="matrix(-1 0 0 1 1724.34 1591.5)"/><path d="M0 0 0.000360892 108.833" stroke="#000000" stroke-width="6.875" stroke-miterlimit="8" fill="none" fill-rule="evenodd" transform="matrix(-1 0 0 1 1464.5 1591.5)"/><path d="M0 0 259.843 0.000360892" stroke="#000000" stroke-width="6.875" stroke-miterlimit="8" fill="none" fill-rule="evenodd" transform="matrix(-1 0 0 1 1467.34 1700.5)"/><path d="M0 0 0.000360892 108.833" stroke="#000000" stroke-width="6.875" stroke-miterlimit="8" fill="none" fill-rule="evenodd" transform="matrix(-1 0 0 1 1207.5 1700.5)"/><path d="M1976.34 1374.17 1716.5 1156.5" stroke="#000000" stroke-width="6.875" stroke-miterlimit="8" fill="none" fill-rule="evenodd"/><path d="M2236.34 1374.17 1976.5 1156.5" stroke="#000000" stroke-width="6.875" stroke-miterlimit="8" fill="none" fill-rule="evenodd"/><path d="M1719.34 1483.17 1459.5 1265.5" stroke="#000000" stroke-width="6.875" stroke-miterlimit="8" fill="none" fill-rule="evenodd"/><path d="M1467.34 1592.17 1207.5 1374.5" stroke="#000000" stroke-width="6.875" stroke-miterlimit="8" fill="none" fill-rule="evenodd"/><path d="M1209.34 1701.17 949.5 1483.5" stroke="#000000" stroke-width="6.875" stroke-miterlimit="8" fill="none" fill-rule="evenodd"/><path d="M1459.34 1701.17 1199.5 1483.5" stroke="#000000" stroke-width="6.875" stroke-miterlimit="8" fill="none" fill-rule="evenodd"/><path d="M1720.34 1592.17 1460.5 1374.5" stroke="#000000" stroke-width="6.875" stroke-miterlimit="8" fill="none" fill-rule="evenodd"/><path d="M1979.34 1483.17 1719.5 1265.5" stroke="#000000" stroke-width="6.875" stroke-miterlimit="8" fill="none" fill-rule="evenodd"/><path d="M0 0 259.843 0.000360892" stroke="#000000" stroke-width="6.875" stroke-miterlimit="8" fill="none" fill-rule="evenodd" transform="matrix(-1 0 0 1 1981.34 1156.5)"/><path d="M0 0 0.000360892 108.833" stroke="#000000" stroke-width="6.875" stroke-miterlimit="8" fill="none" fill-rule="evenodd" transform="matrix(-1 0 0 1 1721.5 1156.5)"/><path d="M0 0 259.843 0.000360892" stroke="#000000" stroke-width="6.875" stroke-miterlimit="8" fill="none" fill-rule="evenodd" transform="matrix(-1 0 0 1 1724.34 1265.5)"/><path d="M0 0 0.000360892 108.833" stroke="#000000" stroke-width="6.875" stroke-miterlimit="8" fill="none" fill-rule="evenodd" transform="matrix(-1 0 0 1 1464.5 1265.5)"/><path d="M0 0 259.843 0.000360892" stroke="#000000" stroke-width="6.875" stroke-miterlimit="8" fill="none" fill-rule="evenodd" transform="matrix(-1 0 0 1 1466.34 1374.5)"/><path d="M0 0 0.000360892 108.833" stroke="#000000" stroke-width="6.875" stroke-miterlimit="8" fill="none" fill-rule="evenodd" transform="matrix(-1 0 0 1 1206.5 1374.5)"/><path d="M0 0 259.843 0.000360892" stroke="#000000" stroke-width="6.875" stroke-miterlimit="8" fill="none" fill-rule="evenodd" transform="matrix(-1 0 0 1 1209.34 1483.5)"/><path d="M0 0 0.000360892 108.833" stroke="#000000" stroke-width="6.875" stroke-miterlimit="8" fill="none" fill-rule="evenodd" transform="matrix(-1 0 0 1 949.5 1483.5)"/><path d="M0 0 1818.9 0.000360892" stroke="#000000" stroke-width="6.875" stroke-miterlimit="8" fill="none" fill-rule="evenodd" transform="matrix(-1 0 0 1 3028.4 1809.5)"/><path d="M1209.34 1809.17 949.5 1591.5" stroke="#000000" stroke-width="6.875" stroke-miterlimit="8" fill="none" fill-rule="evenodd"/><path d="M0 0 259.843 0.000360892" stroke="#000000" stroke-width="6.875" stroke-miterlimit="8" fill="none" fill-rule="evenodd" transform="matrix(-1 0 0 1 3022.34 1047.5)"/><path d="M0 0 0.000360892 108.833" stroke="#000000" stroke-width="6.875" stroke-miterlimit="8" fill="none" fill-rule="evenodd" transform="matrix(-1 0 0 1 2762.5 1047.5)"/><path d="M0 0 259.843 0.000360892" stroke="#000000" stroke-width="6.875" stroke-miterlimit="8" fill="none" fill-rule="evenodd" transform="matrix(-1 0 0 1 2764.34 1156.5)"/><path d="M0 0 0.000360892 108.833" stroke="#000000" stroke-width="6.875" stroke-miterlimit="8" fill="none" fill-rule="evenodd" transform="matrix(-1 0 0 1 2504.5 1156.5)"/><path d="M2759.34 1048.17 2499.5 830.5" stroke="#000000" stroke-width="6.875" stroke-miterlimit="8" fill="none" fill-rule="evenodd"/><path d="M3019.34 1048.17 2759.5 830.5" stroke="#000000" stroke-width="6.875" stroke-miterlimit="8" fill="none" fill-rule="evenodd"/><path d="M2502.34 1156.17 2242.5 938.5" stroke="#000000" stroke-width="6.875" stroke-miterlimit="8" fill="none" fill-rule="evenodd"/><path d="M2503.34 1265.17 2243.5 1047.5" stroke="#000000" stroke-width="6.875" stroke-miterlimit="8" fill="none" fill-rule="evenodd"/><path d="M2762.34 1156.17 2502.5 938.5" stroke="#000000" stroke-width="6.875" stroke-miterlimit="8" fill="none" fill-rule="evenodd"/><path d="M0 0 259.843 0.000360892" stroke="#000000" stroke-width="6.875" stroke-miterlimit="8" fill="none" fill-rule="evenodd" transform="matrix(-1 0 0 1 2764.34 830.5)"/><path d="M0 0 0.000360892 108.833" stroke="#000000" stroke-width="6.875" stroke-miterlimit="8" fill="none" fill-rule="evenodd" transform="matrix(-1 0 0 1 2504.5 830.5)"/><path d="M0 0 259.843 0.000360892" stroke="#000000" stroke-width="6.875" stroke-miterlimit="8" fill="none" fill-rule="evenodd" transform="matrix(-1 0 0 1 2507.34 938.5)"/><path d="M0 0 0.000360892 108.833" stroke="#000000" stroke-width="6.875" stroke-miterlimit="8" fill="none" fill-rule="evenodd" transform="matrix(-1 0 0 1 2247.5 938.5)"/><path d="M0 0 0.000360892 761.831" stroke="#000000" stroke-width="6.875" stroke-miterlimit="8" fill="none" fill-rule="evenodd" transform="matrix(1 0 0 -1 3024.5 1809.33)"/><path d="M2245.01 1174.82C2246.2 1174.06 2247.45 1173.85 2248.78 1174.17 2250.11 1174.49 2251.18 1175.29 2251.99 1176.57 2252.81 1177.85 2253.08 1179.15 2252.81 1180.49 2252.54 1181.83 2251.82 1182.88 2250.63 1183.64 2249.45 1184.39 2248.19 1184.61 2246.87 1184.28 2245.54 1183.96 2244.47 1183.16 2243.65 1181.89 2242.84 1180.61 2242.57 1179.3 2242.83 1177.96 2243.1 1176.62 2243.83 1175.58 2245.01 1174.82ZM2224.3 1188.02C2225.49 1187.27 2226.74 1187.05 2228.07 1187.38 2229.4 1187.7 2230.47 1188.5 2231.28 1189.77 2232.1 1191.05 2232.37 1192.36 2232.1 1193.7 2231.84 1195.04 2231.11 1196.09 2229.93 1196.84 2228.74 1197.6 2227.49 1197.81 2226.16 1197.49 2224.83 1197.17 2223.76 1196.37 2222.95 1195.09 2222.13 1193.82 2221.86 1192.51 2222.13 1191.17 2222.39 1189.83 2223.12 1188.78 2224.3 1188.02ZM2203.6 1201.23C2204.78 1200.47 2206.04 1200.26 2207.36 1200.58 2208.69 1200.9 2209.76 1201.7 2210.58 1202.98 2211.39 1204.25 2211.66 1205.56 2211.4 1206.9 2211.13 1208.24 2210.4 1209.29 2209.22 1210.05 2208.03 1210.8 2206.78 1211.02 2205.45 1210.69 2204.12 1210.37 2203.05 1209.57 2202.24 1208.3 2201.43 1207.02 2201.15 1205.71 2201.42 1204.37 2201.69 1203.03 2202.41 1201.98 2203.6 1201.23Z" fill-rule="evenodd"/><text fill="#000000" fill-opacity="0" font-family="Arial,Arial_MSFontService,sans-serif" font-size="36.8127" x="2201.32" y="1206.24">⋯</text><path d="M10.2094-5.15624 249.633-5.1559 249.633 5.1566 10.2094 5.15626ZM38.5488 22.5008-0.0238993-2.96241e-07 38.5488-22.5007C41.0086-23.9356 44.1659-23.1047 45.6008-20.6449 47.0356-18.1851 46.2048-15.0278 43.745-13.593L12.8075 4.45388 12.8075-4.45384 43.7449 13.5931C46.2047 15.028 47.0356 18.1852 45.6007 20.645 44.1658 23.1048 41.0086 23.9357 38.5488 22.5008ZM221.294-22.5004 259.866 0.000360836 221.294 22.501C218.834 23.9359 215.677 23.1051 214.242 20.6453 212.807 18.1855 213.638 15.0282 216.098 13.5933L247.035-4.45352 247.035 4.4542 216.098-13.5927C213.638-15.0276 212.807-18.1849 214.242-20.6447 215.677-23.1045 218.834-23.9353 221.294-22.5004Z" transform="matrix(-1 0 0 1 1596.84 1479)"/><path d="M1447.5 1483.5 1716.95 1687.88" stroke="#000000" stroke-width="6.875" stroke-miterlimit="8" fill="none" fill-rule="evenodd"/><path d="M5.15628 10.2094 5.15658 98.9475-5.15592 98.9476-5.15622 10.2094ZM-22.5006 38.5489 2.12264e-07-0.0238993 22.5009 38.5487C23.9358 41.0085 23.1049 44.1658 20.6451 45.6007 18.1853 47.0356 15.028 46.2047 13.5932 43.7449L-4.45382 12.8075 4.4539 12.8074-13.5929 43.745C-15.0277 46.2048-18.185 47.0357-20.6448 45.6008-23.1046 44.1659-23.9355 41.0087-22.5006 38.5489ZM22.501 70.6081 0.000360327 109.181-22.5005 70.6082C-23.9354 68.1484-23.1045 64.9912-20.6447 63.5563-18.185 62.1214-15.0277 62.9522-13.5928 65.412L4.45418 96.3495-4.45354 96.3495 13.5932 65.412C15.0281 62.9522 18.1854 62.1213 20.6452 63.5562 23.105 64.991 23.9358 68.1483 22.501 70.6081Z" transform="matrix(-1 0 0 1 1846 1262)"/><path d="M1840.5 1308.5 2064.1 1493.55" stroke="#000000" stroke-width="6.875" stroke-miterlimit="8" fill="none" fill-rule="evenodd"/></g></svg>